<svg height='100px' width='100px'  fill="#807fff" xmlns:x="http://ns.adobe.com/Extensibility/1.0/" xmlns:i="http://ns.adobe.com/AdobeIllustrator/10.0/" xmlns:graph="http://ns.adobe.com/Graphs/1.0/" xmlns="http://www.w3.org/2000/svg" xmlns:xlink="http://www.w3.org/1999/xlink" version="1.1" x="0px" y="0px" viewBox="0 0 100 100" style="enable-background:new 0 0 100 100;" xml:space="preserve"><g><g i:extraneous="self"><g><path d="M55.4,71.7c-0.2,0.5-0.3,1-0.2,1.6l2,12.4c0.3,2.1,2.7,3.1,4.5,1.9L72,80.4c0.4-0.3,0.8-0.7,1-1.2l1.8-4.1l-17.6-7.5     L55.4,71.7z"></path><path d="M95.8,18.3l-12.3-5.2c-1.5-0.6-3.1,0.1-3.8,1.5l-3.2,7.5l17.6,7.5l3.2-7.5C97.9,20.6,97.2,18.9,95.8,18.3z"></path><rect x="59" y="39" transform="matrix(0.3911 -0.9204 0.9204 0.3911 1.3391 99.1808)" width="33.3" height="19.1"></rect><path d="M7.5,22h56c2.8,0,5-2.3,5-5c0-2.8-2.3-5-5-5h-56c-2.8,0-5,2.3-5,5C2.5,19.7,4.8,22,7.5,22z"></path><path d="M59.1,39c0-2.8-2.3-5-5-5H7.5c-2.8,0-5,2.3-5,5c0,2.8,2.3,5,5,5h46.6C56.9,44,59.1,41.7,59.1,39z"></path><path d="M44.7,56H7.5c-2.8,0-5,2.3-5,5c0,2.8,2.3,5,5,5h37.2c2.8,0,5-2.3,5-5C49.7,58.2,47.5,56,44.7,56z"></path><path d="M42.8,78H7.5c-2.8,0-5,2.3-5,5c0,2.8,2.3,5,5,5h35.3c2.8,0,5-2.3,5-5C47.8,80.2,45.6,78,42.8,78z"></path></g></g></g></svg>