<svg xmlns="http://www.w3.org/2000/svg" width="189.647" height="35.988" viewBox="0 0 189.647 35.988">
  <g id="rockerwriter-logo-v4" transform="translate(-212.215 -160.612)">
    <g id="Group_37" data-name="Group 37" transform="translate(240.965 160.612)">
      <path id="Path_24" data-name="Path 24" d="M1191.453,185.256a1.721,1.721,0,0,0-1.72-1.72H1032.276a1.721,1.721,0,0,0-1.72,1.72V217.8a1.721,1.721,0,0,0,1.72,1.72h157.456a1.721,1.721,0,0,0,1.72-1.72Z" transform="translate(-1030.556 -183.536)" fill="#807fff" fill-rule="evenodd"/>
    </g>
    <g id="Group_39" data-name="Group 39" transform="translate(212.215 165.337)">
      <g id="Group_38" data-name="Group 38" transform="translate(0 0)">
        <path id="Path_25" data-name="Path 25" d="M8.075,13.81l3.006,1.349a19.957,19.957,0,0,0-.809,2.852l-.114.561,4.31,4.667.518-.121a16.408,16.408,0,0,0,2.636-.875L18.868,25.5a.2.2,0,0,0,.18.13.187.187,0,0,0,.139-.063l1.884-2.039a3.523,3.523,0,0,0,.907-2.549l-.067-1.31C25.4,16.878,28.928,11.99,29.89,3.458a1.527,1.527,0,0,0,.012-.192,1.359,1.359,0,0,0-1.3-1.4,1.193,1.193,0,0,0-.17.012c-7.881,1.049-12.4,4.872-14.976,8.635l-1.208-.067a2.983,2.983,0,0,0-2.356.968L8.013,13.451a.217.217,0,0,0-.068.16A.21.21,0,0,0,8.075,13.81ZM20.161,8.84A2.247,2.247,0,0,1,21.808,8.1a2.446,2.446,0,0,1,2.332,2.524,2.446,2.446,0,0,1-2.332,2.524,2.247,2.247,0,0,1-1.646-.736,2.673,2.673,0,0,1,0-3.576ZM7.512,23.612a2.842,2.842,0,0,0-1.555-.135.267.267,0,0,1-.259-.084.325.325,0,0,1-.057-.345c.552-1.284,2.016-3.867,4.667-1.781a.151.151,0,0,1,0,.213,3.226,3.226,0,0,0-1.1,2.552.22.22,0,0,0,.2.219,2.793,2.793,0,0,0,2.358-1.161.126.126,0,0,1,.2,0,2.869,2.869,0,0,1,.259,3.517,2.858,2.858,0,0,1-1.954,1.122c-1.088.126-3.1.51-3.921,1.526a.275.275,0,0,1-.216.109.287.287,0,0,1-.271-.221A5.1,5.1,0,0,1,7.512,23.612Z" transform="translate(-5.615 -1.864)" fill="#807fff"/>
      </g>
    </g>
    <g id="Group_52" data-name="Group 52" transform="translate(248.436 166.938)">
      <g id="Group_40" data-name="Group 40" transform="translate(0 5.096)">
        <path id="Path_26" data-name="Path 26" d="M12-94.678h4.376v-8.9a3.16,3.16,0,0,1,3.311-3.254,8.234,8.234,0,0,1,1.843.23v-3.858a6.724,6.724,0,0,0-1.353-.144,3.8,3.8,0,0,0-3.772,2.966h-.173v-2.735H12Z" transform="translate(-12 110.6)" fill="#fff"/>
      </g>
      <g id="Group_41" data-name="Group 41" transform="translate(8.671 5.096)">
        <path id="Path_27" data-name="Path 27" d="M15.345-94.361c4.751,0,7.716-3.282,7.716-8.119,0-4.866-2.966-8.119-7.716-8.119-4.779,0-7.745,3.254-7.745,8.119C7.6-97.644,10.566-94.361,15.345-94.361Zm.029-3.4c-2.217,0-3.34-1.987-3.34-4.751,0-2.735,1.123-4.751,3.34-4.751,2.131,0,3.282,2.015,3.282,4.751C18.656-99.746,17.5-97.759,15.374-97.759Z" transform="translate(-7.6 110.6)" fill="#fff"/>
      </g>
      <g id="Group_42" data-name="Group 42" transform="translate(24.612 5.096)">
        <path id="Path_28" data-name="Path 28" d="M15.345-94.361c4.175,0,6.795-2.476,7-6.075H18.253a2.82,2.82,0,0,1-2.85,2.62c-2.044,0-3.369-1.7-3.369-4.722,0-2.966,1.324-4.664,3.369-4.664a2.811,2.811,0,0,1,2.85,2.62h4.088c-.173-3.628-2.908-6.018-7.025-6.018-4.751,0-7.716,3.311-7.716,8.119C7.6-97.7,10.508-94.361,15.345-94.361Z" transform="translate(-7.6 110.6)" fill="#fff"/>
      </g>
      <g id="Group_43" data-name="Group 43" transform="translate(40.429 0.086)">
        <path id="Path_29" data-name="Path 29" d="M12-124.468h4.376v-4.981l1.152-1.353,4.29,6.334h5.1l-6.1-8.9,5.816-6.795H21.645l-5.039,5.96h-.23v-11.2H12Z" transform="translate(-12 145.4)" fill="#fff"/>
      </g>
      <g id="Group_44" data-name="Group 44" transform="translate(54.161 5.096)">
        <path id="Path_30" data-name="Path 30" d="M15.4-94.361c3.887,0,6.507-1.9,7.112-4.808l-4.031-.259a2.963,2.963,0,0,1-3.023,1.814c-2.159,0-3.541-1.44-3.541-3.8H22.6v-1.209c0-5.327-3.225-7.975-7.371-7.975-4.636,0-7.63,3.282-7.63,8.148C7.6-97.471,10.566-94.361,15.4-94.361Zm-3.484-9.761a3.308,3.308,0,0,1,3.369-3.225,3.1,3.1,0,0,1,3.225,3.225Z" transform="translate(-7.6 110.6)" fill="#fff"/>
      </g>
      <g id="Group_45" data-name="Group 45" transform="translate(69.18 1.555)">
        <path id="Path_31" data-name="Path 31" d="M13.844-131.429H10.907V-135.2H6.559v3.772H4.4v3.254H6.559V-120c-.029,3.081,2.073,4.607,5.211,4.463a8.01,8.01,0,0,0,2.361-.4l-.662-3.225a7.853,7.853,0,0,1-1.094.144c-.864,0-1.468-.346-1.468-1.555v-7.6h2.937Z" transform="translate(-4.4 135.2)" fill="#fff"/>
      </g>
      <g id="Group_46" data-name="Group 46" transform="translate(79.157 5.327)">
        <path id="Path_32" data-name="Path 32" d="M12.751-93.309h1.871l3.714-12.87h.2l3.714,12.87h1.871L28.874-109h-1.9L23.231-96.1h-.144L19.4-109H17.473L13.758-96.073h-.115L9.929-109H8Z" transform="translate(-8 109)" fill="#fff"/>
      </g>
      <g id="Group_47" data-name="Group 47" transform="translate(101.847 5.067)">
        <path id="Path_33" data-name="Path 33" d="M16.6-94.849h1.843v-10.135a4,4,0,0,1,4.232-4.031,6.247,6.247,0,0,1,1.094.115v-1.871c-.23,0-.662-.029-.95-.029a4.5,4.5,0,0,0-4.29,2.649h-.144v-2.39H16.6Z" transform="translate(-16.6 110.8)" fill="#fff"/>
      </g>
      <g id="Group_48" data-name="Group 48" transform="translate(109.981 0)">
        <path id="Path_34" data-name="Path 34" d="M14.232-124.982h1.843v-15.692H14.232Zm.921-18.4a1.371,1.371,0,0,0,1.382-1.324,1.348,1.348,0,0,0-1.382-1.3,1.34,1.34,0,0,0-1.353,1.3A1.365,1.365,0,0,0,15.153-143.38Z" transform="translate(-13.8 146)" fill="#fff"/>
      </g>
      <g id="Group_49" data-name="Group 49" transform="translate(114.038 1.555)">
        <path id="Path_35" data-name="Path 35" d="M15.086-131.429H11.775V-135.2H9.932v3.772H7.6v1.584H9.932v10.452a3.85,3.85,0,0,0,4.06,3.887,4.886,4.886,0,0,0,1.612-.259l-.4-1.67a3.255,3.255,0,0,1-1.065.144c-1.238,0-2.361-.576-2.361-2.534v-10.02h3.311Z" transform="translate(-7.6 135.2)" fill="#fff"/>
      </g>
      <g id="Group_50" data-name="Group 50" transform="translate(122.953 5.096)">
        <path id="Path_36" data-name="Path 36" d="M18.169-94.361c3.138,0,5.269-1.7,5.989-3.657l-1.728-.576a4.39,4.39,0,0,1-4.261,2.563c-3.225,0-5.24-2.332-5.327-5.96h11.69v-.893c0-5.24-3.225-7.716-6.651-7.716-4.06,0-6.881,3.4-6.881,8.148C11-97.673,13.764-94.361,18.169-94.361ZM12.843-103.6c.2-2.908,2.188-5.327,5.039-5.327,2.822,0,4.808,2.3,4.808,5.327Z" transform="translate(-11 110.6)" fill="#fff"/>
      </g>
      <g id="Group_51" data-name="Group 51" transform="translate(138.749 5.067)">
        <path id="Path_37" data-name="Path 37" d="M16.6-94.849h1.843v-10.135a4,4,0,0,1,4.232-4.031,6.247,6.247,0,0,1,1.094.115v-1.871c-.23,0-.662-.029-.95-.029a4.5,4.5,0,0,0-4.29,2.649h-.144v-2.39H16.6Z" transform="translate(-16.6 110.8)" fill="#fff"/>
      </g>
    </g>
  </g>
</svg>
